<?xml version="1.0" standalone="no"?>
<!DOCTYPE svg PUBLIC "-//W3C//DTD SVG 20010904//EN"
 "http://www.w3.org/TR/2001/REC-SVG-20010904/DTD/svg10.dtd">
<svg version="1.0" xmlns="http://www.w3.org/2000/svg"
 width="128.000000pt" height="128.000000pt" viewBox="0 0 128.000000 128.000000"
 preserveAspectRatio="xMidYMid meet">

<g transform="translate(0.000000,128.000000) scale(0.100000,-0.100000)"
fill="#000000" stroke="none">
<path d="M335 865 c-25 -24 -25 -25 -25 -220 0 -261 -15 -245 225 -245 133 0
175 3 175 13 -1 33 -16 36 -185 39 l-170 3 0 190 0 190 203 3 202 2 0 -64 c0
-60 7 -76 36 -76 3 0 4 37 2 82 -4 110 1 108 -246 108 -192 0 -193 0 -217 -25z"/>
<path d="M490 771 c0 -13 8 -21 23 -23 21 -3 22 -7 22 -103 0 -96 -1 -100 -22
-103 -15 -2 -23 -10 -23 -23 0 -17 7 -19 65 -19 57 0 65 2 65 19 0 10 -9 21
-20 24 -18 5 -20 14 -20 102 0 88 2 97 20 102 11 3 20 14 20 24 0 17 -8 19
-65 19 -58 0 -65 -2 -65 -19z"/>
<path d="M680 694 c-1 -18 73 -289 81 -298 4 -4 18 13 31 39 l25 47 39 -46 39
-46 28 23 27 22 -35 44 c-20 25 -32 48 -28 52 5 3 25 12 46 19 20 6 37 15 37
19 0 4 -58 33 -129 64 -162 71 -161 71 -161 61z"/>
</g>
</svg>
