<?xml version="1.0" standalone="no"?>
<!DOCTYPE svg PUBLIC "-//W3C//DTD SVG 20010904//EN"
 "http://www.w3.org/TR/2001/REC-SVG-20010904/DTD/svg10.dtd">
<svg version="1.0" xmlns="http://www.w3.org/2000/svg"
 width="48.000000pt" height="48.000000pt" viewBox="0 0 48.000000 48.000000"
 preserveAspectRatio="xMidYMid meet">

<g transform="translate(0.000000,48.000000) scale(0.100000,-0.100000)"
fill="#000000" stroke="none">
<path d="M184 416 c-72 -32 -118 -140 -96 -223 34 -126 127 -178 213 -120 51
35 79 91 79 162 0 135 -98 225 -196 181z m92 -68 c3 -5 -3 -12 -15 -15 -19 -5
-21 -12 -21 -94 0 -72 3 -89 15 -89 8 0 15 -6 15 -13 0 -9 -12 -13 -34 -13
-40 2 -56 13 -32 22 23 9 24 179 0 188 -8 3 -13 9 -10 14 7 12 75 12 82 0z"/>
</g>
</svg>
