<?xml version="1.0" standalone="no"?>
<!DOCTYPE svg PUBLIC "-//W3C//DTD SVG 20010904//EN"
 "http://www.w3.org/TR/2001/REC-SVG-20010904/DTD/svg10.dtd">
<svg version="1.0" xmlns="http://www.w3.org/2000/svg"
 width="128.000000pt" height="128.000000pt" viewBox="0 0 128.000000 128.000000"
 preserveAspectRatio="xMidYMid meet">

<g transform="translate(0.000000,128.000000) scale(0.100000,-0.100000)"
fill="#000000" stroke="none">
<path d="M526 1134 c-178 -57 -305 -262 -306 -495 0 -218 118 -428 277 -490
134 -52 273 -18 377 90 102 107 146 229 146 403 0 130 -29 234 -91 327 -97
146 -258 211 -403 165z m84 -194 c9 -5 19 -5 26 1 7 6 30 9 51 7 31 -2 39 -7
41 -25 3 -19 -1 -23 -23 -23 -14 0 -35 -5 -46 -10 -18 -10 -19 -23 -19 -243 0
-128 4 -237 8 -244 4 -6 23 -13 42 -15 27 -2 36 -8 38 -25 4 -28 -38 -41 -81
-25 -20 7 -36 8 -48 2 -45 -24 -106 2 -79 34 6 8 26 16 43 18 l32 3 3 244 c3
263 3 261 -50 261 -31 0 -41 11 -32 34 7 18 69 22 94 6z"/>
</g>
</svg>
