<?xml version="1.0" standalone="no"?>
<!DOCTYPE svg PUBLIC "-//W3C//DTD SVG 20010904//EN"
 "http://www.w3.org/TR/2001/REC-SVG-20010904/DTD/svg10.dtd">
<svg version="1.0" xmlns="http://www.w3.org/2000/svg"
 width="48.000000pt" height="48.000000pt" viewBox="0 0 48.000000 48.000000"
 preserveAspectRatio="xMidYMid meet">

<g transform="translate(0.000000,48.000000) scale(0.100000,-0.100000)"
fill="#000000" stroke="none">
<path d="M124 317 c-3 -8 -4 -47 -2 -88 l3 -74 68 -3 c42 -2 67 1 67 8 0 6
-27 10 -65 10 l-66 0 3 73 3 72 75 0 75 0 7 -30 c6 -29 6 -29 5 5 l-2 35 -83
3 c-63 2 -84 0 -88 -11z"/>
<path d="M195 240 c0 -38 4 -50 15 -50 11 0 15 12 15 50 0 38 -4 50 -15 50
-11 0 -15 -12 -15 -50z"/>
<path d="M261 243 c0 -10 6 -36 13 -58 11 -32 15 -36 21 -22 7 17 9 17 26 1
23 -21 38 -10 22 16 -10 15 -9 19 5 25 16 6 16 7 -1 16 -9 6 -33 17 -52 25
-32 13 -35 13 -34 -3z"/>
</g>
</svg>
